<svg xmlns="http://www.w3.org/2000/svg" xmlns:xlink="http://www.w3.org/1999/xlink" viewBox="0 0 256 256" width="256" height="256">
  <defs><clipPath id="bgc"><rect width="256" height="256" rx="51.2"/></clipPath></defs>
  <rect width="256" height="256" rx="51.2" fill="#1e3a8a"/>
  
  <g opacity="1" transform="translate(128,128) rotate(0)" color="#ffffff"><svg x="-99.84" y="-99.84" width="199.68" height="199.68" viewBox="0 0 24 24" fill="none" stroke="currentColor" stroke-width="2" stroke-linecap="round" stroke-linejoin="round"> <path d="M4 5a1 1 0 0 1 1 -1h4a1 1 0 0 1 1 1v4a1 1 0 0 1 -1 1h-4a1 1 0 0 1 -1 -1l0 -4" /> <path d="M7 17l0 .01" /> <path d="M14 5a1 1 0 0 1 1 -1h4a1 1 0 0 1 1 1v4a1 1 0 0 1 -1 1h-4a1 1 0 0 1 -1 -1l0 -4" /> <path d="M7 7l0 .01" /> <path d="M4 15a1 1 0 0 1 1 -1h4a1 1 0 0 1 1 1v4a1 1 0 0 1 -1 1h-4a1 1 0 0 1 -1 -1l0 -4" /> <path d="M17 7l0 .01" /> <path d="M14 14l3 0" /> <path d="M20 14l0 .01" /> <path d="M14 14l0 3" /> <path d="M14 20l3 0" /> <path d="M17 17l3 0" /> <path d="M20 17l0 3" /> </svg></g>
  
</svg>